<svg xmlns="http://www.w3.org/2000/svg" xmlns:xlink="http://www.w3.org/1999/xlink" viewBox="0 0 398.68 496.94"><defs><style>.cls-1{fill:none;}.cls-2{isolation:isolate;}.cls-3{clip-path:url(#clip-path);}.cls-4,.cls-6{fill-rule:evenodd;}.cls-4{fill:url(#linear-gradient);}.cls-5{opacity:0.5;mix-blend-mode:color-dodge;}.cls-6{fill:url(#linear-gradient-2);}</style><clipPath id="clip-path" transform="translate(-7038.84 -6964.27)"><rect class="cls-1" x="6828.7" y="6919.27" width="742.26" height="436.31"/></clipPath><linearGradient id="linear-gradient" x1="7254.96" y1="6959.94" x2="7211.16" y2="7460.55" gradientUnits="userSpaceOnUse"><stop offset="0.19" stop-color="#52b85d"/><stop offset="0.29" stop-color="#52b85d" stop-opacity="0.78"/><stop offset="0.49" stop-color="#52b85d" stop-opacity="0.36"/><stop offset="0.64" stop-color="#52b85d" stop-opacity="0.1"/><stop offset="0.71" stop-color="#52b85d" stop-opacity="0"/></linearGradient><linearGradient id="linear-gradient-2" x1="7157.51" y1="6993.06" x2="7319.9" y2="7439.22" gradientUnits="userSpaceOnUse"><stop offset="0.12" stop-color="#52b85d"/><stop offset="0.19" stop-color="#52b85d" stop-opacity="0.78"/><stop offset="0.34" stop-color="#52b85d" stop-opacity="0.36"/><stop offset="0.44" stop-color="#52b85d" stop-opacity="0.1"/><stop offset="0.49" stop-color="#52b85d" stop-opacity="0"/></linearGradient></defs><title>Draco_05</title><g class="cls-2"><g id="Layer_1" data-name="Layer 1"><g class="cls-3"><path class="cls-4" d="M7105.51,7374.8h0c100.1,40.79,233.11,23.48,280.4-136.94.58,30.93-16.66,75.47-40.86,112.41-24.16,37.26-55.29,66.94-81.7,75.52m-70.49-69.53c90.09-7.33,155.25-75.88,178.07-172.94q1.57-6.56,2.69-12.8a210.49,210.49,0,0,1-10.31,83.92c-18.16,54.47-64.31,92.2-119.42,108.44-55.08,16.7-119.12,11.9-172.3-8.11m115.62-38.7c82.22-12.81,143.63-91.46,150.79-180.1a209.8,209.8,0,0,0-3.4-60.81q-.62-2.93-1.31-5.71h0a137,137,0,0,1,9.94,24.18c2.26,7.42,4.36,15,6.4,22.57h0c8.74,47.11,3.75,59.39-5,88.27-5.85,19.33-14.83,31.54-25.08,48.76-34.46,58.3-94.44,83.67-161.68,78.8m105.5,93.76c60.38-19.58,103.46-67.92,124.37-128,21-59.72,19.76-131.16-7.29-189-43.86-95.14-141-118.56-238.77-85.75-50.26,16.2-71.74,33-102.83,51,1.64,7,5.08,8.22,10.58,12.32-3.42-3.87-2.42-4.11-2.46-7.61,19.8,1.1,65.23-37.92,33.39,6.29,25.29-19.66,29-42.12,58.07-51,42.93-13.21,74.23-11.81,104.45,13.89,26.09,22.06,40.66,59.75,36.45,107-11.06,69.87-64.45,121.87-130.79,110.33-16.47-3.94-30.6-11.57-41.15-21.38,16.47,25.76,54.53,35.09,87.35,30,72.27-14.73,109.86-91.73,103.12-165.35-6-38.36-20.57-68.53-43.37-84.21a1,1,0,0,1,.33.07c33.61,22,43.93,32.81,50.13,46.06,10.37,22.34,11.33,46.51,9.57,77-10.82,90.57-73.62,158-157.76,150.65M7205,7451.64c69.08.33,127.46-29.76,165.43-81.75,38-51.37,55.67-124.63,45-196.36-10.67-72.06-47.18-126.38-97.34-152.87-50.23-27.11-114.1-26.4-181-2.63-6.42,2.35-37.63,15.24-48.82,20.9,48.71-39.5,138.4-93.24,266.62-68.28-21.47-1.2-38.36-1.78-52.75-1.76-53.63.07-110.08,17.53-163.29,44.68q-6.06,3.1-12.13,6.14c4.19-1.65,17.55-6.53,21.82-8.08,68.56-24.85,134.06-25.83,185.61,2.2,51.48,27.38,89,83.77,100.08,158.68,11,74.57-6.95,150.76-45.92,204.1-38.89,54-98.8,85.14-169.72,84.61" transform="translate(-7038.84 -6964.27)"/><g class="cls-5"><path class="cls-6" d="M7105.51,7374.8h0c100.1,40.79,233.11,23.48,280.4-136.94.58,30.93-16.66,75.47-40.86,112.41-24.16,37.26-55.29,66.94-81.7,75.52m-70.49-69.53c90.09-7.33,155.25-75.88,178.07-172.94q1.57-6.56,2.69-12.8a210.49,210.49,0,0,1-10.31,83.92c-18.16,54.47-64.31,92.2-119.42,108.44-55.08,16.7-119.12,11.9-172.3-8.11m115.62-38.7c82.22-12.81,143.63-91.46,150.79-180.1a209.8,209.8,0,0,0-3.4-60.81q-.62-2.93-1.31-5.71h0a137,137,0,0,1,9.94,24.18c2.26,7.42,4.36,15,6.4,22.57h0c8.74,47.11,3.75,59.39-5,88.27-5.85,19.33-14.83,31.54-25.08,48.76-34.46,58.3-94.44,83.67-161.68,78.8m105.5,93.76c60.38-19.58,103.46-67.92,124.37-128,21-59.72,19.76-131.16-7.29-189-43.86-95.14-141-118.56-238.77-85.75-50.26,16.2-71.74,33-102.83,51,1.64,7,5.08,8.22,10.58,12.32-3.42-3.87-2.42-4.11-2.46-7.61,19.8,1.1,65.23-37.92,33.39,6.29,25.29-19.66,29-42.12,58.07-51,42.93-13.21,74.23-11.81,104.45,13.89,26.09,22.06,40.66,59.75,36.45,107-11.06,69.87-64.45,121.87-130.79,110.33-16.47-3.94-30.6-11.57-41.15-21.38,16.47,25.76,54.53,35.09,87.35,30,72.27-14.73,109.86-91.73,103.12-165.35-6-38.36-20.57-68.53-43.37-84.21a1,1,0,0,1,.33.07c33.61,22,43.93,32.81,50.13,46.06,10.37,22.34,11.33,46.51,9.57,77-10.82,90.57-73.62,158-157.76,150.65M7205,7451.64c69.08.33,127.46-29.76,165.43-81.75,38-51.37,55.67-124.63,45-196.36-10.67-72.06-47.18-126.38-97.34-152.87-50.23-27.11-114.1-26.4-181-2.63-6.42,2.35-37.63,15.24-48.82,20.9,48.71-39.5,138.4-93.24,266.62-68.28-21.47-1.2-38.36-1.78-52.75-1.76-53.63.07-110.08,17.53-163.29,44.68q-6.06,3.1-12.13,6.14c4.19-1.65,17.55-6.53,21.82-8.08,68.56-24.85,134.06-25.83,185.61,2.2,51.48,27.38,89,83.77,100.08,158.68,11,74.57-6.95,150.76-45.92,204.1-38.89,54-98.8,85.14-169.72,84.61" transform="translate(-7038.84 -6964.27)"/></g></g></g></g></svg>